<?xml version="1.0" standalone="no"?><!DOCTYPE svg PUBLIC "-//W3C//DTD SVG 1.1//EN" "http://www.w3.org/Graphics/SVG/1.1/DTD/svg11.dtd"><svg t="1653466718013" class="icon" viewBox="0 0 1024 1024" version="1.1" xmlns="http://www.w3.org/2000/svg" p-id="11400" xmlns:xlink="http://www.w3.org/1999/xlink" width="200" height="200"><defs><style type="text/css">@font-face { font-family: feedback-iconfont; src: url("//at.alicdn.com/t/font_1031158_u69w8yhxdu.woff2?t=1630033759944") format("woff2"), url("//at.alicdn.com/t/font_1031158_u69w8yhxdu.woff?t=1630033759944") format("woff"), url("//at.alicdn.com/t/font_1031158_u69w8yhxdu.ttf?t=1630033759944") format("truetype"); }
</style></defs><path d="M166.144 529.237333v366.933334h108.416v-366.933334h-108.373333z m-3.498667-51.2h115.456c26.325333 0 47.658667 21.333333 47.658667 47.701334v373.930666c0 26.368-21.333333 47.701333-47.658667 47.701334H162.645333c-26.325333 0-47.701333-21.333333-47.701333-47.701334v-373.930666c0-26.368 21.333333-47.701333 47.701333-47.701334z" p-id="11401"></path><path d="M426.666667 525.568V896h115.2v-275.498667c13.653333 5.674667 27.946667 10.24 42.666666 13.482667V896a42.666667 42.666667 0 0 1-42.666666 42.666667H426.666667a42.666667 42.666667 0 0 1-42.666667-42.666667V469.333333c0-8.917333 2.730667-17.152 7.381333-24.021333 7.125333 29.013333 19.2 56.064 35.285334 80.213333zM693.205333 895.914667h108.416v-154.453334h-108.373333v154.453334z m-3.498666-205.653334h115.456c26.325333 0 47.658667 21.333333 47.658666 47.658667v161.493333c0 26.325333-21.333333 47.701333-47.658666 47.701334h-115.456c-26.368 0-47.701333-21.333333-47.701334-47.701334v-161.493333c0-26.325333 21.333333-47.658667 47.701334-47.658667z" p-id="11402"></path><path d="M642.005333 662.784c-159.701333 0-289.109333-130.261333-289.109333-290.858667 0-160.597333 129.408-290.858667 289.109333-290.858666s289.152 130.261333 289.152 290.858666c0 160.597333-129.450667 290.858667-289.152 290.858667z m0-51.2c131.370667 0 237.952-107.264 237.952-239.658667S773.376 132.266667 642.005333 132.266667c-131.370667 0-237.909333 107.264-237.909333 239.658666s106.538667 239.658667 237.909333 239.658667z" p-id="11403"></path><path d="M536.576 323.029333c2.56 0 4.522667-1.92 4.522667-4.138666v4.138666h-4.522667z m4.522667 0h149.077333v285.269334l57.258667 5.632V318.890667a52.906667 52.906667 0 0 0-52.736-53.077334h-158.122667a52.906667 52.906667 0 0 0-52.693333 53.077334v269.184h57.216V323.029333z m153.6 0c-2.56 0-4.522667-1.92-4.522667-4.138666v4.138666h4.522667z m-4.522667-4.138666c0 2.218667 1.962667 4.138667 4.522667 4.138666h-4.522667v-4.138666z m0 289.408l57.258667 5.632V318.890667a52.906667 52.906667 0 0 0-52.736-53.077334h-158.122667a52.906667 52.906667 0 0 0-52.693333 53.077334v269.184h57.216V323.029333h149.077333v285.269334z m-149.077333-289.408c0 2.218667-1.92 4.138667-4.522667 4.138666h4.522667v-4.138666zM806.698667 583.338667a28.586667 28.586667 0 0 1 39.594666-41.301334l105.386667 101.034667a28.586667 28.586667 0 0 1-39.594667 41.301333l-105.386666-101.034666z" p-id="11404"></path></svg>