<?xml version="1.0" standalone="no"?><!DOCTYPE svg PUBLIC "-//W3C//DTD SVG 1.1//EN" "http://www.w3.org/Graphics/SVG/1.1/DTD/svg11.dtd"><svg t="1655106642867" class="icon" viewBox="0 0 1024 1024" version="1.1" xmlns="http://www.w3.org/2000/svg" p-id="8269" xmlns:xlink="http://www.w3.org/1999/xlink" width="200" height="200"><defs><style type="text/css">@font-face { font-family: feedback-iconfont; src: url("//at.alicdn.com/t/font_1031158_u69w8yhxdu.woff2?t=1630033759944") format("woff2"), url("//at.alicdn.com/t/font_1031158_u69w8yhxdu.woff?t=1630033759944") format("woff"), url("//at.alicdn.com/t/font_1031158_u69w8yhxdu.ttf?t=1630033759944") format("truetype"); }
</style></defs><path d="M512 455.431L794.843 172.59a8 8 0 0 1 11.313 0l45.255 45.255a8 8 0 0 1 0 11.313L568.57 512 851.41 794.843a8 8 0 0 1 0 11.313l-45.255 45.255a8 8 0 0 1-11.313 0L512 568.57 229.157 851.41a8 8 0 0 1-11.313 0l-45.255-45.255a8 8 0 0 1 0-11.313L455.43 512 172.59 229.157a8 8 0 0 1 0-11.313l45.255-45.255a8 8 0 0 1 11.313 0L512 455.43z" p-id="8270"></path></svg>