<?xml version="1.0" standalone="no"?><!DOCTYPE svg PUBLIC "-//W3C//DTD SVG 1.1//EN" "http://www.w3.org/Graphics/SVG/1.1/DTD/svg11.dtd"><svg t="1651889985662" class="icon" viewBox="0 0 1024 1024" version="1.1" xmlns="http://www.w3.org/2000/svg" p-id="4806" xmlns:xlink="http://www.w3.org/1999/xlink" width="200" height="200"><defs><style type="text/css">@font-face { font-family: feedback-iconfont; src: url("//at.alicdn.com/t/font_1031158_u69w8yhxdu.woff2?t=1630033759944") format("woff2"), url("//at.alicdn.com/t/font_1031158_u69w8yhxdu.woff?t=1630033759944") format("woff"), url("//at.alicdn.com/t/font_1031158_u69w8yhxdu.ttf?t=1630033759944") format("truetype"); }
</style></defs><path d="M789.333333 490.666667a61.013333 61.013333 0 0 1 21.333334 4.266666 60.586667 60.586667 0 0 0 21.333333 3.413334 63.146667 63.146667 0 0 0 64-64V298.666667a85.333333 85.333333 0 0 0-85.333333-85.333334h-135.68a128 128 0 1 0-240.64 0H298.666667a85.333333 85.333333 0 0 0-85.333334 85.333334v135.68a128 128 0 1 0 0 240.64V810.666667a85.333333 85.333333 0 0 0 85.333334 85.333333h512a85.333333 85.333333 0 0 0 85.333333-85.333333v-135.68a63.146667 63.146667 0 0 0-64-64 60.586667 60.586667 0 0 0-21.333333 3.413333 61.013333 61.013333 0 0 1-21.333334 4.266667 64 64 0 0 1 0-128z m0 192a128 128 0 0 0 42.666667-7.68V810.666667a21.333333 21.333333 0 0 1-21.333333 21.333333H298.666667a21.333333 21.333333 0 0 1-21.333334-21.333333v-135.68a64 64 0 0 0-27.306666-52.48 62.293333 62.293333 0 0 0-36.693334-11.52 60.586667 60.586667 0 0 0-21.333333 3.413333 61.013333 61.013333 0 0 1-21.333333 4.266667 64 64 0 0 1 0-128 61.013333 61.013333 0 0 1 21.333333 4.266666 60.586667 60.586667 0 0 0 21.333333 3.413334 62.293333 62.293333 0 0 0 36.693334-11.52 64 64 0 0 0 27.306666-52.48V298.666667a21.333333 21.333333 0 0 1 21.333334-21.333334h135.68a64.426667 64.426667 0 0 0 60.586666-85.333333 61.013333 61.013333 0 0 1-4.266666-21.333333 64 64 0 0 1 128 0 61.013333 61.013333 0 0 1-4.266667 21.333333 64.426667 64.426667 0 0 0 60.586667 85.333333H810.666667a21.333333 21.333333 0 0 1 21.333333 21.333334v135.68a128 128 0 1 0-42.666667 248.32z" p-id="4807"></path></svg>