<?xml version="1.0" standalone="no"?><!DOCTYPE svg PUBLIC "-//W3C//DTD SVG 1.1//EN" "http://www.w3.org/Graphics/SVG/1.1/DTD/svg11.dtd"><svg t="1651823196261" class="icon" viewBox="0 0 1024 1024" version="1.1" xmlns="http://www.w3.org/2000/svg" p-id="14175" xmlns:xlink="http://www.w3.org/1999/xlink" width="200" height="200"><defs><style type="text/css">@font-face { font-family: feedback-iconfont; src: url("//at.alicdn.com/t/font_1031158_u69w8yhxdu.woff2?t=1630033759944") format("woff2"), url("//at.alicdn.com/t/font_1031158_u69w8yhxdu.woff?t=1630033759944") format("woff"), url("//at.alicdn.com/t/font_1031158_u69w8yhxdu.ttf?t=1630033759944") format("truetype"); }
</style></defs><path d="M512 379.648a30.528 30.528 0 0 1-30.528-30.528V288a30.528 30.528 0 0 1 61.056 0v61.12A30.528 30.528 0 0 1 512 379.648zM317.632 355.84l43.2 43.2a30.528 30.528 0 1 1-43.2 43.2l-43.2-43.2a30.528 30.528 0 1 1 43.2-43.2z m-49.984 207.04a30.528 30.528 0 0 1 0 61.12h-61.12a30.528 30.528 0 0 1 0-61.12h61.12z m549.76 0a30.528 30.528 0 0 1 0 61.12h-61.056a30.528 30.528 0 0 1 0-61.12h61.12z m-67.84-206.976a30.528 30.528 0 0 1 0 43.136l-43.2 43.2a30.464 30.464 0 0 1-43.2 0 30.528 30.528 0 0 1 0-43.2l43.2-43.2a30.528 30.528 0 0 1 43.2 0z m52.032 461.568a365.056 365.056 0 0 0 76.928-224A366.976 366.976 0 0 0 512 226.88a366.976 366.976 0 0 0-366.528 366.592c0 81.216 27.136 159.808 76.928 224h579.2zM512 165.76a427.648 427.648 0 0 1 427.648 427.648c0 109.632-41.6 209.408-109.568 285.056H193.92a425.408 425.408 0 0 1-109.568-285.056A427.648 427.648 0 0 1 512 165.76z m-28.8 398.848c15.872-15.936 84.864-59.136 100.8-43.2 15.872 15.872-27.328 84.864-43.2 100.8a40.704 40.704 0 1 1-57.6-57.6z" p-id="14176"></path></svg>