<?xml version="1.0" standalone="no"?><!DOCTYPE svg PUBLIC "-//W3C//DTD SVG 1.1//EN" "http://www.w3.org/Graphics/SVG/1.1/DTD/svg11.dtd"><svg t="1654587337660" class="icon" viewBox="0 0 1024 1024" version="1.1" xmlns="http://www.w3.org/2000/svg" p-id="3888" xmlns:xlink="http://www.w3.org/1999/xlink" width="200" height="200"><defs><style type="text/css">@font-face { font-family: feedback-iconfont; src: url("//at.alicdn.com/t/font_1031158_u69w8yhxdu.woff2?t=1630033759944") format("woff2"), url("//at.alicdn.com/t/font_1031158_u69w8yhxdu.woff?t=1630033759944") format("woff"), url("//at.alicdn.com/t/font_1031158_u69w8yhxdu.ttf?t=1630033759944") format("truetype"); }
</style></defs><path d="M564.3 509.1c0 13.4-11.1 24.3-24.7 24.3H388.3c-15.8 0-28.6-10.9-28.6-24.3s12.8-24.3 28.6-24.3h151.2c13.7 0 24.8 10.8 24.8 24.3zM519.2 637c0 13.4-11.1 24.3-24.7 24.3H388.3c-15.8 0-28.6-10.9-28.6-24.3s12.8-24.3 28.6-24.3h106.1c13.7 0 24.8 10.9 24.8 24.3zM610.6 381.1c0 13.4-11.1 24.3-24.7 24.3H388.3c-15.8 0-28.6-10.9-28.6-24.3s12.8-24.3 28.6-24.3h197.6c13.7 0 24.7 10.9 24.7 24.3zM688 815.1c-63.2 0-114.7-51.5-114.7-114.7S624.8 585.7 688 585.7s114.7 51.5 114.7 114.7c0 63.3-51.5 114.7-114.7 114.7z m0-159.9c-24.9 0-45.2 20.3-45.2 45.2 0 24.9 20.3 45.2 45.2 45.2 24.9 0 45.2-20.3 45.2-45.2 0-24.9-20.3-45.2-45.2-45.2z" p-id="3889"></path><path d="M773.7 835.4c-8.9 0-17.8-3.4-24.6-10.2l-35.4-35.4c-13.6-13.6-13.6-35.6 0-49.1 13.6-13.6 35.6-13.6 49.1 0l35.4 35.4c13.6 13.6 13.6 35.6 0 49.1-6.7 6.8-15.6 10.2-24.5 10.2zM586.9 807.2c0-18.9-15.4-34.2-34.3-34l-242.2 2.1h-0.1c-8.9 0-16.2-7.2-16.3-16.1l-4.2-489.7c-0.1-5.9 2.9-9.8 4.7-11.6 1.8-1.8 5.6-4.8 11.5-4.9l409.5-3.5h0.1c8.9 0 16.2 7.2 16.3 16.1l2.4 279.7c0.2 18.7 15.3 33.7 34 33.7 18.9 0 34.2-15.4 34-34.3L799.9 265c-0.2-22.4-9.1-43.4-24.9-59.1-15.9-15.7-36.9-24.4-59.3-24.4h-0.7L305.4 185c-22.5 0.2-43.6 9.1-59.4 25.2-15.8 16.1-24.4 37.3-24.2 59.8l4.2 489.7c0.2 22.4 9.1 43.4 24.9 59.1 15.9 15.7 36.9 24.4 59.3 24.4h0.7l242.2-2.1c18.8-0.1 33.8-15.3 33.8-33.9z" p-id="3890"></path></svg>