<?xml version="1.0" standalone="no"?><!DOCTYPE svg PUBLIC "-//W3C//DTD SVG 1.1//EN" "http://www.w3.org/Graphics/SVG/1.1/DTD/svg11.dtd"><svg t="1652431295880" class="icon" viewBox="0 0 1024 1024" version="1.1" xmlns="http://www.w3.org/2000/svg" p-id="4421" xmlns:xlink="http://www.w3.org/1999/xlink" width="200" height="200"><defs><style type="text/css">@font-face { font-family: feedback-iconfont; src: url("//at.alicdn.com/t/font_1031158_u69w8yhxdu.woff2?t=1630033759944") format("woff2"), url("//at.alicdn.com/t/font_1031158_u69w8yhxdu.woff?t=1630033759944") format("woff"), url("//at.alicdn.com/t/font_1031158_u69w8yhxdu.ttf?t=1630033759944") format("truetype"); }
</style></defs><path d="M336.4864 711.8848a26.0096 26.0096 0 0 1-26.0096-27.0336l4.9152-125.952a25.8048 25.8048 0 0 1 7.5776-17.408L809.1648 55.7056a122.88 122.88 0 0 1 81.92-36.4544 109.1584 109.1584 0 0 1 81.92 31.1296 107.1104 107.1104 0 0 1 31.1296 81.92 122.88 122.88 0 0 1-36.4544 81.92l-486.8096 485.376a25.8048 25.8048 0 0 1-17.408 7.5776l-125.952 4.9152z m125.952-30.72z m-95.4368-109.9776l-3.4816 87.8592L450.56 655.36 930.2016 176.7424a71.2704 71.2704 0 0 0 20.48-47.3088 54.6816 54.6816 0 0 0-58.5728-58.5728 71.2704 71.2704 0 0 0-47.3088 20.48z" p-id="4422"></path><path d="M801.5872 1004.9536H171.008A150.528 150.528 0 0 1 20.48 854.4256V223.8464a150.528 150.528 0 0 1 150.528-150.528h413.2864a26.0096 26.0096 0 0 1 0 51.8144H171.008a98.7136 98.7136 0 0 0-98.5088 98.5088v630.784a98.7136 98.7136 0 0 0 98.5088 98.5088h630.5792a98.7136 98.7136 0 0 0 98.5088-98.5088V440.9344a26.0096 26.0096 0 1 1 51.8144 0v413.4912a150.528 150.528 0 0 1-150.3232 150.528z" p-id="4423"></path></svg>