<?xml version="1.0" standalone="no"?><!DOCTYPE svg PUBLIC "-//W3C//DTD SVG 1.1//EN" "http://www.w3.org/Graphics/SVG/1.1/DTD/svg11.dtd"><svg t="1653637161069" class="icon" viewBox="0 0 1024 1024" version="1.1" xmlns="http://www.w3.org/2000/svg" p-id="7681" xmlns:xlink="http://www.w3.org/1999/xlink" width="200" height="200"><defs><style type="text/css">@font-face { font-family: feedback-iconfont; src: url("//at.alicdn.com/t/font_1031158_u69w8yhxdu.woff2?t=1630033759944") format("woff2"), url("//at.alicdn.com/t/font_1031158_u69w8yhxdu.woff?t=1630033759944") format("woff"), url("//at.alicdn.com/t/font_1031158_u69w8yhxdu.ttf?t=1630033759944") format("truetype"); }
</style></defs><path d="M490.1376 209.3312c67.4048-64.3328 143.5648-83.9168 199.8336-35.3024 25.472 22.016 35.072 49.4848 30.592 85.8112l-0.9216 6.5024-0.768 3.4048-3.072 11.264a199.424 199.424 0 0 1-5.0944 15.3088l-1.6384 4.0448c-5.2736 12.032-17.408 33.8688-37.4272 67.7888l-7.8592 13.312-54.9888-32.768 16.6656-28.3136c14.72-25.3184 23.424-41.3696 25.2672-46.3616l2.56-7.296 3.4048-12.2112 0.4096-2.6112c1.8688-14.2848-0.0768-20.9408-6.9632-27.6224l-2.0224-1.8176c-24.5248-21.1968-64.3072-11.9552-108.8 28.5184l-4.9664 4.6336c-35.072 33.4592-68.224 27.0592-96.6656-4.352l-4.9152-5.7344-9.8048-12.2368c-14.0288-17.4848-19.8144-21.2736-27.136-19.7888-18.7136 3.7888-29.8752 16.9728-27.8272 32.512 2.3808 18.3808 20.8384 50.944 40.704 73.984l4.2752 4.7872-46.976 43.4688c-29.5936-31.9488-56.8576-78.6432-61.4656-113.9712-6.7072-51.3024 28.928-93.44 78.592-103.5264 36.352-7.3472 59.7504 6.528 85.8112 37.6832l14.5664 17.9968 4.352 4.9152 2.304-2.048z" p-id="7682"></path><path d="M372.0704 337.664l-0.7936 0.3328a355.0976 355.0976 0 0 0-210.176 299.136c-2.7392 38.144 0.0256 73.9328 9.1392 108.3904 20.5312 77.5424 160.2816 131.2256 346.9824 131.2768 182.8096 0.0512 307.7888-51.2512 334.3616-129.1264 16.8192-49.28 15.872-121.4208 0.5632-176.8192-25.6512-92.5952-80.1024-164.5824-162.5088-214.016l-20.4288-11.6224-4.6336-2.4832a126.464 126.464 0 0 0-15.5648-7.1424l-1.1264-0.384 2.304 1.024c-61.44-29.5936-204.4416-28.7744-278.1184 1.4336z m250.3168 56.2432l6.4256 2.5344c1.28 0.5632 2.9952 1.3824 5.0944 2.4832l11.52 6.2976 3.712 2.0992c72.6528 41.1648 119.296 101.0432 141.312 180.608 12.1344 43.7504 12.8768 102.9888 0.5632 139.0848-15.2832 44.8-115.2768 85.8368-273.7664 85.7856-160.512-0.0512-274.6112-43.8528-285.1328-83.6352-7.2192-27.264-9.4464-56.0128-7.168-87.424l0.7168-8.2176a291.1232 291.1232 0 0 1 164.0192-233.5488l6.656-3.072c57.6-23.6288 181.7856-24.32 226.048-2.9952z" p-id="7683"></path><path d="M396.3904 536.7296m32 0l167.2192 0q32 0 32 32l0 0q0 32-32 32l-167.2192 0q-32 0-32-32l0 0q0-32 32-32Z" p-id="7684"></path><path d="M396.3904 626.944m32 0l167.2192 0q32 0 32 32l0 0q0 32-32 32l-167.2192 0q-32 0-32-32l0 0q0-32 32-32Z" p-id="7685"></path><path d="M544 543.3344m0 32l0 167.2192q0 32-32 32l0 0q-32 0-32-32l0-167.2192q0-32 32-32l0 0q32 0 32 32Z" p-id="7686"></path><path d="M436.700541 418.658507m22.627417 22.627417l72.226715 72.226715q22.627417 22.627417 0 45.254834l0 0q-22.627417 22.627417-45.254834 0l-72.226715-72.226715q-22.627417-22.627417 0-45.254834l0 0q22.627417-22.627417 45.254834 0Z" p-id="7687"></path><path d="M629.617792 463.547442m-22.627417 22.627417l-72.226716 72.226716q-22.627417 22.627417-45.254834 0l0 0q-22.627417-22.627417 0-45.254834l72.226716-72.226716q22.627417-22.627417 45.254834 0l0 0q22.627417 22.627417 0 45.254834Z" p-id="7688"></path></svg>