<?xml version="1.0" standalone="no"?><!DOCTYPE svg PUBLIC "-//W3C//DTD SVG 1.1//EN" "http://www.w3.org/Graphics/SVG/1.1/DTD/svg11.dtd"><svg t="1653460553618" class="icon" viewBox="0 0 1024 1024" version="1.1" xmlns="http://www.w3.org/2000/svg" p-id="3733" xmlns:xlink="http://www.w3.org/1999/xlink" width="200" height="200"><defs><style type="text/css">@font-face { font-family: feedback-iconfont; src: url("//at.alicdn.com/t/font_1031158_u69w8yhxdu.woff2?t=1630033759944") format("woff2"), url("//at.alicdn.com/t/font_1031158_u69w8yhxdu.woff?t=1630033759944") format("woff"), url("//at.alicdn.com/t/font_1031158_u69w8yhxdu.ttf?t=1630033759944") format("truetype"); }
</style></defs><path d="M192.037 287.953h640.124c17.673 0 32-14.327 32-32s-14.327-32-32-32H192.037c-17.673 0-32 14.327-32 32s14.327 32 32 32zM192.028 543.17h393.608c17.673 0 32-14.327 32-32s-14.327-32-32-32H192.028c-17.673 0-32 14.327-32 32s14.327 32 32 32zM832.161 735.802H192.037c-17.673 0-32 14.327-32 32s14.327 32 32 32h640.124c17.673 0 32-14.327 32-32s-14.327-32-32-32zM705.162 671.594l160-160-160-160z" p-id="3734"></path></svg>