<?xml version="1.0" standalone="no"?><!DOCTYPE svg PUBLIC "-//W3C//DTD SVG 1.1//EN" "http://www.w3.org/Graphics/SVG/1.1/DTD/svg11.dtd"><svg t="1651911803877" class="icon" viewBox="0 0 1024 1024" version="1.1" xmlns="http://www.w3.org/2000/svg" p-id="8700" xmlns:xlink="http://www.w3.org/1999/xlink" width="200" height="200"><defs><style type="text/css">@font-face { font-family: feedback-iconfont; src: url("//at.alicdn.com/t/font_1031158_u69w8yhxdu.woff2?t=1630033759944") format("woff2"), url("//at.alicdn.com/t/font_1031158_u69w8yhxdu.woff?t=1630033759944") format("woff"), url("//at.alicdn.com/t/font_1031158_u69w8yhxdu.ttf?t=1630033759944") format("truetype"); }
</style></defs><path d="M922.752 402.816v470.016c0 36.096-40.256 76.416-76.352 76.416h-721.728c-36.096 0-76.352-24.064-76.352-60.16V167.36c0-36.096 40.256-87.36 76.352-87.36h652.224V30.784h-652.224a120.768 120.768 0 0 0-120.384 120.32v721.728c0 66.176 54.272 120.32 120.384 120.32h721.728a120.576 120.576 0 0 0 120.256-120.32V402.816h-43.904z" p-id="8701"></path><path d="M448.128 778.752a35.328 35.328 0 0 1-24.896-10.304l-234.24-234.24a35.264 35.264 0 0 1 0-49.856c13.76-13.76 36.032 1.856 49.728 15.616l209.344 209.344 511.488-511.424c13.76-13.824 36.032-29.44 49.728-15.616a35.2 35.2 0 0 1 0 49.792l-536.384 536.384a34.816 34.816 0 0 1-24.768 10.304z" p-id="8702"></path></svg>