<?xml version="1.0" standalone="no"?><!DOCTYPE svg PUBLIC "-//W3C//DTD SVG 1.1//EN" "http://www.w3.org/Graphics/SVG/1.1/DTD/svg11.dtd"><svg t="1653466721394" class="icon" viewBox="0 0 1024 1024" version="1.1" xmlns="http://www.w3.org/2000/svg" p-id="11542" xmlns:xlink="http://www.w3.org/1999/xlink" width="200" height="200"><defs><style type="text/css">@font-face { font-family: feedback-iconfont; src: url("//at.alicdn.com/t/font_1031158_u69w8yhxdu.woff2?t=1630033759944") format("woff2"), url("//at.alicdn.com/t/font_1031158_u69w8yhxdu.woff?t=1630033759944") format("woff"), url("//at.alicdn.com/t/font_1031158_u69w8yhxdu.ttf?t=1630033759944") format("truetype"); }
</style></defs><path d="M880 140.992H144c-37.568 0-67.968 30.464-68.032 68.032v443.968c0.064 37.568 30.464 67.968 68.032 68.032H480v93.952H201.984a8 8 0 0 0-8 8v56c0 4.48 3.584 8 8 8h620.032a8 8 0 0 0 8-8v-56a8 8 0 0 0-8-8H544v-93.952h336c37.568-0.064 67.968-30.464 68.032-68.032V209.024c-0.064-37.568-30.464-67.968-68.032-68.032z m-4.032 497.984H148.032V212.992h727.936v425.984zM273.984 451.008h264c5.376 0 8 2.688 8 8v48c0 5.312-2.624 8-8 8H273.984c-5.312 0-8-2.688-8-8v-48c0-5.312 2.688-8 8-8z m0-148.992H576c5.312 0 8 2.624 8 8v48c0 5.312-2.688 8-8 8H273.984c-5.312 0-8-2.688-8-8v-48c0-5.376 2.688-8 8-8z" p-id="11543"></path></svg>